<svg width="83" height="83" viewBox="0 0 83 83" fill="none" xmlns="http://www.w3.org/2000/svg">
<circle cx="1.64759" cy="1.64759" r="1.64759" fill="#D2DFEA"/>
<circle cx="1.64759" cy="21.4187" r="1.64759" fill="#D2DFEA"/>
<circle cx="1.64759" cy="41.1898" r="1.64759" fill="#D2DFEA"/>
<circle cx="1.64759" cy="60.9608" r="1.64759" fill="#D2DFEA"/>
<circle cx="1.64759" cy="80.7319" r="1.64759" fill="#D2DFEA"/>
<circle cx="41.1896" cy="1.64759" r="1.64759" fill="#D2DFEA"/>
<circle cx="41.1896" cy="21.4187" r="1.64759" fill="#D2DFEA"/>
<circle cx="41.1896" cy="41.1898" r="1.64759" fill="#D2DFEA"/>
<circle cx="41.1896" cy="60.9608" r="1.64759" fill="#D2DFEA"/>
<circle cx="41.1896" cy="80.7319" r="1.64759" fill="#D2DFEA"/>
<circle cx="80.7321" cy="1.64759" r="1.64759" fill="#D2DFEA"/>
<circle cx="80.7321" cy="21.4187" r="1.64759" fill="#D2DFEA"/>
<circle cx="80.7321" cy="41.1898" r="1.64759" fill="#D2DFEA"/>
<circle cx="80.7321" cy="60.9608" r="1.64759" fill="#D2DFEA"/>
<circle cx="80.7321" cy="80.7319" r="1.64759" fill="#D2DFEA"/>
<circle cx="21.4186" cy="1.64759" r="1.64759" fill="#D2DFEA"/>
<circle cx="21.4186" cy="21.4187" r="1.64759" fill="#D2DFEA"/>
<circle cx="21.4186" cy="41.1898" r="1.64759" fill="#D2DFEA"/>
<circle cx="21.4186" cy="60.9608" r="1.64759" fill="#D2DFEA"/>
<circle cx="21.4186" cy="80.7319" r="1.64759" fill="#D2DFEA"/>
<circle cx="60.9611" cy="1.64759" r="1.64759" fill="#D2DFEA"/>
<circle cx="60.9611" cy="21.4187" r="1.64759" fill="#D2DFEA"/>
<circle cx="60.9611" cy="41.1898" r="1.64759" fill="#D2DFEA"/>
<circle cx="60.9611" cy="60.9608" r="1.64759" fill="#D2DFEA"/>
<circle cx="60.9611" cy="80.7319" r="1.64759" fill="#D2DFEA"/>
</svg>
